# xmcd
#
# Track frame offsets:
#	150
#	17541
#	26696
#	40654
#	61434
#	78491
#	93882
#	109597
#	123633
#	137780
#	152187
#	167523
#	187290
#	210871
#
# Disc length: 3026 seconds
#
# Revision: 1
# Processed by: cddbd v1.5.2PL0 Copyright (c) Steve Scherf et al.
# Submitted via: audiograbber 1.83.01
#
DISCID=b30bd00e
DTITLE=Chester River Runoff - Blue Heron Farm
DYEAR=1900
DGENRE=
TTITLE0=Where the Speed Limit Changes
TTITLE1=Morning Song
TTITLE2=River Song
TTITLE3=Until Then
TTITLE4=Blind Goose [Instrumental]
TTITLE5=Plastic Houses
TTITLE6=Breakthrough
TTITLE7=Roll On
TTITLE8=Isleboro Stomp [Instrumental]
TTITLE9=Too Many Sunny Days
TTITLE10=Steamboat
TTITLE11=Coffee
TTITLE12=Catskill Hailstorm [Instrumental]
TTITLE13=Old Brown
EXTD=
EXTT0=
EXTT1=
EXTT2=
EXTT3=
EXTT4=
EXTT5=
EXTT6=
EXTT7=
EXTT8=
EXTT9=
EXTT10=
EXTT11=
EXTT12=
EXTT13=
PLAYORDER=
